<svg width="43" height="92" viewBox="0 0 43 92" fill="none" xmlns="http://www.w3.org/2000/svg">
<path fill-rule="evenodd" clip-rule="evenodd" d="M34.2942 37.4836L36.8647 30.6389C36.4087 33.0703 35.5296 35.3473 34.2942 37.4836ZM32.8633 53.4321C33.5437 50.7083 34.3108 48.034 34.6824 45.2679C34.877 48.1755 33.9515 50.8363 32.8633 53.4321ZM24.533 46.5278C23.4522 46.5259 23.5982 45.8305 23.7003 45.1921C24.0441 43.0328 25.7287 41.9457 27.3494 40.9217C28.5305 40.1753 29.8524 39.5483 31.3299 39.5528C31.8933 39.5543 32.3387 39.711 31.9255 40.4339C30.7971 42.4072 29.4352 44.1762 27.5101 45.4382C26.593 46.0395 25.5909 46.4514 24.533 46.5278ZM33.404 45.2632C33.4648 47.0247 32.9542 48.7063 32.5005 50.3858C30.5393 57.6427 26.5695 63.7206 21.5386 69.2077C18.1779 72.8731 14.5006 76.1819 10.6993 79.3675C10.3527 79.6585 9.99055 79.9388 9.82726 80.3821C9.64407 80.8801 9.67889 81.2344 10.3497 81.0089C10.515 80.9538 10.6721 80.7279 10.763 81.0412C11.0772 82.1218 11.8652 81.8421 12.5809 81.662C13.924 81.3244 14.992 80.445 16.1011 79.6954C19.2087 77.5958 22.2398 75.3766 24.9535 72.7789C27.4726 70.3672 29.6141 67.6175 31.6773 64.8095C32.9906 63.022 34.3017 61.1856 34.915 59.0673C35.3224 57.6601 36.2028 56.5317 36.6162 55.1589C37.4088 52.5272 38.1702 49.8975 38.3653 47.1378C38.5256 44.8664 38.1075 42.7122 37.0064 40.7175C36.6431 40.06 36.6263 39.4466 36.9088 38.789C37.6697 37.0163 38.376 35.2138 39.0523 33.4167C40.1533 30.493 40.7853 27.4082 41.2944 24.319C42.1064 19.3917 42.4136 14.4499 41.5089 9.49541C40.9772 6.58348 40.2637 3.74709 38.0959 1.53366C37.5252 0.950873 36.8922 0.515442 36.0308 0.529326C35.6595 0.53489 35.3769 0.647844 35.2161 1.00871C35.0266 1.43541 35.3304 1.47771 35.6057 1.67989C37.4944 3.06598 37.7118 5.23289 38.104 7.29474C39.1849 12.9768 38.5653 18.6045 37.497 24.2117C36.6793 28.5026 35.4509 32.6725 33.7359 36.6937C33.5998 37.0131 33.6042 37.4564 33.0016 37.1797C30.9018 36.2154 28.7381 36.333 26.6231 37.0599C23.3584 38.1816 20.6972 40.0493 19.6385 43.5395C19.0696 45.4149 19.6627 46.6803 21.2508 47.8095C25.2963 50.6872 29.7217 49.2087 32.4056 46.0381C32.6456 45.7538 32.8856 45.4699 33.1252 45.1865C33.2184 45.2119 33.3112 45.2378 33.404 45.2632Z" fill="black"/>
<path fill-rule="evenodd" clip-rule="evenodd" d="M4.64671 81.101C3.91921 83.295 2.91266 85.3423 1.49721 87.173C2.54691 85.1491 3.59701 83.1253 4.64671 81.101ZM13.8409 85.7988C11.4994 85.8151 9.20145 86.2306 6.89331 86.5557C6.54833 86.6043 6.1694 86.8438 5.87527 86.4069C5.59289 85.9871 5.89262 85.671 6.08201 85.3926C7.11286 83.8743 7.64039 82.1383 8.35732 80.478C8.81064 79.4294 9.46578 78.458 9.89862 77.3663C10.5645 75.6854 11.3572 74.0525 12.1384 72.4197C12.5341 71.5923 12.5253 70.6153 13.2664 69.9016C13.9932 69.2013 13.7891 68.4273 12.6092 67.5342C12.0072 67.0781 11.1982 66.8827 10.6089 67.6344C10.1244 68.2526 9.67938 68.919 9.32537 69.6187C6.9831 74.2497 4.67825 78.8995 2.34132 83.5332C1.81688 84.5733 1.2217 85.5792 0.647107 86.5937C-0.397801 88.4382 -0.136793 89.2297 1.7309 90.2521C3.18077 91.0458 4.62233 91.1294 6.18699 90.634C9.19893 89.6809 12.2381 88.8135 15.39 88.4428C16.0216 88.3687 16.663 88.3834 17.2984 88.3338C18.0341 88.277 18.227 87.9352 17.8042 87.2979C16.8678 85.8848 16.547 85.7619 13.8409 85.7988Z" fill="black"/>
</svg>
