<svg width="289" height="730" viewBox="0 0 289 730" fill="none" xmlns="http://www.w3.org/2000/svg">
<path d="M-11.373 0.257812C-17.4475 50.2653 -23.532 99.9579 0.0108754 150.1C23.4204 199.993 76.5706 249.954 101.491 299.997C126.287 350.107 123.244 400.732 108.67 431.92C93.972 463.174 67.8771 475.241 61.8286 510.184C55.7802 545.128 69.6548 603.014 64.5497 640.014C59.5679 676.947 -0.28174 713.136 -24.5 729" stroke="#F83801" stroke-opacity="0.24"/>
<path d="M-45.7461 18.6875C-51.1641 62.2813 -56.4487 106.124 -35.8594 149.874C-15.2701 193.623 31.1933 237.28 52.9142 281.063C74.7686 325.096 72.0042 369.19 59.1696 396.575C46.3351 423.959 23.5541 434.569 18.1021 465.045C12.907 495.704 25.1745 546.478 20.5328 578.762C16.1481 611.229 -5.14575 625.207 -26.316 639.118" stroke="#F83801" stroke-opacity="0.12"/>
<path d="M-81 37.5859C-85.589 74.9206 -90.0449 112.504 -72.4431 149.781C-54.8413 187.058 -15.0388 224.593 3.57914 262.286C22.3204 299.912 20.0003 337.63 8.82349 360.899C-2.09677 384.35 -21.4939 393.468 -26.0607 419.592C-30.7507 445.783 -20.0974 489.345 -23.9881 517.026C-27.8788 544.708 -45.9337 556.626 -64.112 568.61" stroke="black" stroke-opacity="0.08"/>
</svg>
