<svg width="636" height="333" viewBox="0 0 636 333" fill="none" xmlns="http://www.w3.org/2000/svg">
<path d="M636 332C594.796 301.456 553.873 271.06 498.558 267.961C443.524 264.862 374.38 289.356 318.5 287.586C262.62 285.668 219.44 257.632 198.838 228.564C178.236 199.348 179.929 169.099 151.989 146.08C124.049 123.061 66.4755 107.125 36.2778 83.9591C6.07999 60.9404 3.54 30.3964 1 -1.77622e-05" stroke="#F83801" stroke-opacity="0.08"/>
<path d="M636 290.898C600.138 264.158 563.994 237.417 515.707 234.758C467.421 232.099 406.992 253.521 358.141 251.896C309.008 250.271 271.451 225.746 253.379 200.188C235.307 174.629 236.719 148.184 212.435 127.944C187.868 107.852 137.322 93.9643 111.061 73.5765C84.518 53.3365 82.259 26.596 80 0.00321674" stroke="#F83801" stroke-opacity="0.04"/>
<path d="M636 248.734C605.263 225.881 574.244 203.027 533.073 200.815C491.903 198.604 440.017 216.887 398 215.412C355.983 214.085 323.836 193.148 308.609 171.179C293.1 149.358 294.227 126.799 273.36 109.548C252.493 92.1498 209.066 80.3543 186.507 62.9561C163.948 45.5578 161.974 22.8515 160 -0.00214624" stroke="#F83801" stroke-opacity="0.04"/>
<path d="M636 207.633C610.305 188.583 584.61 169.533 550.162 167.613C515.714 165.693 472.513 181.051 437.5 179.87C402.487 178.688 375.663 161.115 362.674 142.951C349.968 124.639 350.815 105.737 333.309 91.4122C315.802 76.94 279.942 67.0457 261.024 52.5735C242.106 38.1014 240.412 19.0512 239 0.00107884" stroke="black" stroke-opacity="0.04"/>
<path d="M636 165.477C615.43 150.327 594.86 135.03 567.528 133.559C539.914 132.088 505.537 144.149 477.641 143.266C449.463 142.384 428.048 128.411 417.904 113.849C407.478 99.4344 408.324 84.2845 394.516 72.8117C380.428 61.3389 351.686 53.3962 336.47 41.9234C321.536 30.3035 320.409 15.1535 319 0.00353777" stroke="black" stroke-opacity="0.04"/>
<path d="M636 124.367C620.491 112.873 605.263 101.527 584.678 100.348C563.81 99.1693 538.149 108.305 517 107.716C496.133 106.979 480.059 96.5169 472.164 85.6126C464.55 74.7083 465.114 63.3619 454.68 54.6679C444.246 46.1213 422.533 40.0797 411.254 31.5331C399.974 22.8391 399.128 11.3453 398 -0.00106508" stroke="black" stroke-opacity="0.04"/>
</svg>
