<svg width="30" height="30" viewBox="0 0 30 30" fill="none" xmlns="http://www.w3.org/2000/svg">
<path fill-rule="evenodd" clip-rule="evenodd" d="M30 0H0V30H30V21.3651L27.5593 22.774C26.1501 23.5875 24.6342 24 23.0537 24C20.7407 24 18.4442 23.0703 16.753 21.4491C14.9777 19.7472 14 17.4379 14 14.9463C14 11.6786 15.6896 8.75231 18.5196 7.11823C21.3497 5.48415 24.729 5.48404 27.5592 7.11767L30 8.52718V0ZM30 10.4413L26.7304 8.55337C25.5764 7.88757 24.3393 7.54998 23.0537 7.54998C21.1633 7.54998 19.2849 8.3115 17.9002 9.63918C16.4537 11.0258 15.6572 12.9106 15.6572 14.9463C15.6572 19.5149 19.4965 22.3428 23.0537 22.3428C24.3393 22.3428 25.5764 22.0052 26.7307 21.3393L30 19.4515V17.8249L25.8922 19.8867C24.9963 20.4035 24.0413 20.6656 23.0537 20.6656C20.3032 20.6656 17.3346 18.4791 17.3346 14.9465C17.3346 13.3722 17.9476 11.9175 19.0609 10.8501C20.1363 9.81888 21.5916 9.22756 23.0536 9.22756C24.0412 9.22756 24.9962 9.48967 25.8919 10.0063L30 12.3784V10.4413ZM30 14.282L25.0628 11.4412C24.4137 11.0665 23.7566 10.8843 23.054 10.8843C22.0314 10.8843 20.9667 11.3188 20.2075 12.0466C19.4125 12.8087 18.9921 13.8113 18.9921 14.9463C18.9921 17.7172 21.4161 19.0082 23.0542 19.0082C23.6506 19.0082 24.122 18.8218 24.7264 18.5829C24.8338 18.5404 24.9454 18.4962 25.0627 18.4512L30 16.376V14.282Z" fill="black"/>
</svg>
