<svg width="48" height="48" viewBox="0 0 48 48" fill="none" xmlns="http://www.w3.org/2000/svg">
<g clip-path="url(#clip0_878_941)">
<path fill-rule="evenodd" clip-rule="evenodd" d="M33.4189 24.2001C33.4189 25.0216 34.077 25.6887 34.888 25.6887C35.6996 25.6887 36.3577 25.0216 36.3577 24.1998C36.3577 23.3771 35.6996 22.7109 34.888 22.7109C34.077 22.7109 33.4189 23.3771 33.4189 24.1998M14.3685 26.1172C14.3685 26.9393 13.711 27.6064 12.8991 27.6064C12.0871 27.6064 11.4297 26.9393 11.4297 26.1175C11.4297 25.2948 12.0871 24.6286 12.8988 24.6286C13.711 24.6286 14.3685 25.2948 14.3685 26.1175M24.3106 39.3029C16.4575 39.3029 12.8674 33.4661 12.7178 33.2177C12.6714 33.14 12.6409 33.0538 12.6281 32.9642C12.6153 32.8746 12.6205 32.7833 12.6433 32.6957C12.6661 32.6081 12.7061 32.526 12.7609 32.4539C12.8158 32.3819 12.8844 32.3216 12.9628 32.2763C13.1217 32.1835 13.3108 32.1568 13.4892 32.2019C13.6677 32.2471 13.8213 32.3605 13.917 32.5178C14.0496 32.7377 17.272 37.9287 24.273 37.9287C31.3107 37.9287 34.5334 32.7377 34.6672 32.5166C34.7632 32.3597 34.917 32.2468 35.0954 32.2021C35.2739 32.1574 35.4627 32.1844 35.6214 32.2775C35.6996 32.3228 35.768 32.3831 35.8227 32.4551C35.8774 32.5271 35.9172 32.6092 35.9398 32.6967C35.9625 32.7841 35.9675 32.8753 35.9547 32.9647C35.9418 33.0542 35.9113 33.1402 35.8649 33.2177C35.7162 33.4661 32.1261 39.3029 24.3106 39.3029" fill="black"/>
<path d="M23.8694 47.4379C36.8029 47.4379 47.2875 36.9533 47.2875 24.0197C47.2875 11.0862 36.8029 0.601562 23.8694 0.601562C10.9358 0.601562 0.451172 11.0862 0.451172 24.0197C0.451172 36.9533 10.9358 47.4379 23.8694 47.4379Z" stroke="black" stroke-width="1.16364"/>
</g>
<defs>
<clipPath id="clip0_878_941">
<rect width="48" height="48" fill="white"/>
</clipPath>
</defs>
</svg>
