<svg width="80" height="80" viewBox="0 0 80 80" fill="none" xmlns="http://www.w3.org/2000/svg">
<g clip-path="url(#clip0_867_803)">
<path opacity="0.88" fill-rule="evenodd" clip-rule="evenodd" d="M55.9145 39.212L79.8956 39.9101L55.9145 40.6082C51.9309 40.7242 48.1423 42.3586 45.3243 45.1767C42.5063 47.9948 40.8721 51.7835 40.7563 55.7671L40.0582 79.7501L39.3603 55.7671C39.2445 51.7835 37.6103 47.9948 34.7923 45.1767C31.9743 42.3586 28.1857 40.7242 24.202 40.6082L0.220703 39.9101L24.202 39.212C28.1857 39.096 31.9743 37.4616 34.7923 34.6435C37.6103 31.8254 39.2445 28.0367 39.3603 24.053L40.0582 0.0703125L40.7563 24.053C40.8721 28.0367 42.5063 31.8254 45.3243 34.6435C48.1423 37.4616 51.9309 39.096 55.9145 39.212Z" fill="black"/>
</g>
<defs>
<clipPath id="clip0_867_803">
<rect width="80" height="79.7695" fill="white"/>
</clipPath>
</defs>
</svg>
