<svg width="114" height="30" viewBox="0 0 114 30" fill="none" xmlns="http://www.w3.org/2000/svg">
<path fill-rule="evenodd" clip-rule="evenodd" d="M30 0H0V30H30V21.3651L27.5593 22.774C26.1501 23.5875 24.6342 24 23.0537 24C20.7407 24 18.4442 23.0703 16.753 21.4491C14.9777 19.7472 14 17.4379 14 14.9463C14 11.6786 15.6896 8.75231 18.5196 7.11823C21.3497 5.48415 24.729 5.48404 27.5592 7.11767L30 8.52718V0ZM30 10.4413L26.7304 8.55337C25.5764 7.88757 24.3393 7.54998 23.0537 7.54998C21.1633 7.54998 19.2849 8.3115 17.9002 9.63918C16.4537 11.0258 15.6572 12.9106 15.6572 14.9463C15.6572 19.5149 19.4965 22.3428 23.0537 22.3428C24.3393 22.3428 25.5764 22.0052 26.7307 21.3393L30 19.4515V17.8249L25.8922 19.8867C24.9963 20.4035 24.0413 20.6656 23.0537 20.6656C20.3032 20.6656 17.3346 18.4791 17.3346 14.9465C17.3346 13.3722 17.9476 11.9175 19.0609 10.8501C20.1363 9.81888 21.5916 9.22756 23.0536 9.22756C24.0412 9.22756 24.9962 9.48967 25.8919 10.0063L30 12.3784V10.4413ZM30 14.282L25.0628 11.4412C24.4137 11.0665 23.7566 10.8843 23.054 10.8843C22.0314 10.8843 20.9667 11.3188 20.2075 12.0466C19.4125 12.8087 18.9921 13.8113 18.9921 14.9463C18.9921 17.7172 21.4161 19.0082 23.0542 19.0082C23.6506 19.0082 24.122 18.8218 24.7264 18.5829C24.8338 18.5404 24.9454 18.4962 25.0627 18.4512L30 16.376V14.282Z" fill="black"/>
<path d="M49.944 23.24C54.696 23.24 56.688 20.984 56.688 18.536C56.688 16.184 55.104 14.72 51.888 14.144L47.976 13.472C46.08 13.064 45.264 12.608 45.264 11.216C45.264 9.776 46.416 9.056 49.344 9.056C52.68 9.056 53.856 10.04 53.856 12.008V12.32H56.424V12.176C56.424 9.032 54.288 6.68 49.584 6.68C44.592 6.68 42.672 9.032 42.672 11.36C42.672 14 44.592 15.248 47.304 15.728L51.24 16.376C53.28 16.76 54.096 17.288 54.096 18.68C54.096 20.192 53.016 20.864 49.944 20.864C46.416 20.864 45.288 19.904 45.288 17.984V17.6H42.696V17.744C42.696 21.128 45.144 23.24 49.944 23.24ZM61.1201 23V6.92H58.5281V23H61.1201ZM69.5203 23.24C73.0723 23.24 75.5683 21.488 75.5683 18.944V18.728H72.9763V18.92C72.9763 20.336 71.9443 21.152 69.4483 21.152C66.6883 21.152 65.5603 19.928 65.4643 17.624H75.5923C75.6643 17.264 75.6883 16.928 75.6883 16.496C75.6883 12.872 73.1683 10.832 69.4723 10.832C65.5843 10.832 63.0403 13.328 63.0403 17.048C63.0403 21.032 65.6083 23.24 69.5203 23.24ZM69.4243 12.872C71.9683 12.872 73.2403 13.928 73.2403 16.136V16.184H65.4883C65.6323 14.048 66.7843 12.872 69.4243 12.872ZM83.6297 23.24C87.1817 23.24 89.6777 21.488 89.6777 18.944V18.728H87.0857V18.92C87.0857 20.336 86.0537 21.152 83.5577 21.152C80.7977 21.152 79.6697 19.928 79.5737 17.624H89.7017C89.7737 17.264 89.7977 16.928 89.7977 16.496C89.7977 12.872 87.2777 10.832 83.5817 10.832C79.6937 10.832 77.1497 13.328 77.1497 17.048C77.1497 21.032 79.7177 23.24 83.6297 23.24ZM83.5337 12.872C86.0777 12.872 87.3497 13.928 87.3497 16.136V16.184H79.5977C79.7417 14.048 80.8937 12.872 83.5337 12.872ZM98.8911 17.048V14.84H91.2591V17.048H98.8911ZM103.401 23V18.128H106.809L110.337 23H113.385L108.921 16.808L113.409 11.072H110.385L106.809 15.8H103.401V6.92H100.809V23H103.401Z" fill="black"/>
</svg>
