<svg width="114" height="50" viewBox="0 0 114 50" fill="none" xmlns="http://www.w3.org/2000/svg">
<path fill-rule="evenodd" clip-rule="evenodd" d="M14.5152 18.9533C16.7164 17.6823 19.3448 17.6823 21.546 18.9529L24.5999 20.7164C24.8475 20.8594 25.1525 20.8594 25.4001 20.7164L28.454 18.9529C30.6552 17.6823 33.2836 17.6824 35.4848 18.9533C37.6858 20.2243 39 22.5003 39 25.0418C39 26.9797 38.2396 28.7759 36.8588 30.0995C35.5434 31.3605 33.7572 32.0836 31.9583 32.0836C30.729 32.0836 29.5499 31.7627 28.4539 31.13L25.3999 29.3671C25.1524 29.2243 24.8476 29.2243 24.6001 29.3671L21.5461 31.13C20.4501 31.7627 19.271 32.0836 18.0417 32.0836C16.2428 32.0836 14.4566 31.3605 13.1412 30.0995C11.7604 28.7759 11 26.9797 11 25.0418C11 22.5003 12.3142 20.2242 14.5152 18.9533ZM24.6 27.8786C24.8475 27.7357 25.1525 27.7357 25.4 27.8786L29.0984 30.0141C29.9961 30.532 30.9583 30.7946 31.9583 30.7946C34.725 30.7946 37.711 28.5951 37.711 25.0418C37.711 23.4585 37.0915 21.9925 35.9665 20.914C34.8895 19.8814 33.4285 19.2891 31.9583 19.2891C30.9583 19.2891 29.9961 19.5517 29.0986 20.0695L25.4 22.2051C25.1525 22.348 24.8475 22.348 24.6 22.2051L20.9014 20.0695C20.0039 19.5517 19.0417 19.2891 18.0417 19.2891C16.5715 19.2891 15.1105 19.8814 14.0335 20.914C12.9085 21.9925 12.289 23.4585 12.289 25.0418C12.289 28.5951 15.275 30.7946 18.0417 30.7946C19.0417 30.7946 20.0039 30.532 20.9016 30.0141L24.6 27.8786ZM25 25.4201L19.6044 22.3156C19.0995 22.0242 18.5885 21.8825 18.042 21.8825C17.2466 21.8825 16.4186 22.2204 15.8281 22.7865C15.2097 23.3792 14.8828 24.159 14.8828 25.0418C14.8828 27.1969 16.7681 28.2011 18.0422 28.2011C18.506 28.2011 18.8727 28.0561 19.3427 27.8702C19.4263 27.8372 19.5131 27.8029 19.6043 27.7678L24.69 25.6302C24.8883 25.5469 25.1117 25.5469 25.31 25.6302L30.3957 27.7678C30.4869 27.8029 30.5737 27.8372 30.6573 27.8702C31.1273 28.0561 31.494 28.2011 31.9578 28.2011C33.2319 28.2011 35.1172 27.1969 35.1172 25.0418C35.1172 24.159 34.7903 23.3792 34.1719 22.7865C33.5814 22.2204 32.7534 21.8825 31.958 21.8825C31.4115 21.8825 30.9005 22.0242 30.3956 22.3156L25 25.4201ZM24.6411 26.6801C24.867 26.5667 25.133 26.5667 25.3589 26.6801L29.7505 28.8843C30.4473 29.2863 31.1901 29.4902 31.9583 29.4902C34.0975 29.4902 36.4064 27.7895 36.4064 25.042C36.4064 23.8175 35.9297 22.686 35.0637 21.8559C34.2273 21.0538 33.0954 20.5939 31.9583 20.5939C31.1902 20.5939 30.4474 20.7978 29.7508 21.1996L25.4 23.7118C25.1525 23.8547 25.0001 24.1188 25.0001 24.4045L25 25.4201L24.9999 24.4045C24.9999 24.1188 24.8475 23.8547 24.6 23.7118L20.2492 21.1996C19.5526 20.7978 18.8098 20.5939 18.0417 20.5939C16.9046 20.5939 15.7727 21.0538 14.9363 21.8559C14.0703 22.686 13.5936 23.8175 13.5936 25.042C13.5936 27.7895 15.9025 29.4902 18.0417 29.4902C18.8099 29.4902 19.5527 29.2863 20.2495 28.8843L24.6411 26.6801Z" fill="#0F0F0F"/>
<g clip-path="url(#clip0_199_361)">
<path d="M54.6541 30.2378C54.5478 30.0289 54.6595 29.7796 54.8816 29.705L56.9434 29.0125C57.1267 28.951 57.3261 29.0306 57.4323 29.1921C57.8066 29.7613 58.3173 30.2413 58.9645 30.6321C59.7315 31.0866 60.5412 31.3139 61.3935 31.3139C62.2599 31.3139 62.956 31.1008 63.4815 30.6747C64.0213 30.2485 64.2912 29.7088 64.2912 29.0553C64.2912 28.331 63.9929 27.7556 63.3963 27.3295C62.8139 26.9034 61.9687 26.5056 60.8608 26.1363C59.1989 25.5823 58.0838 25.1491 57.5156 24.8366C55.9105 23.9417 55.108 22.6278 55.108 20.8949C55.108 19.4602 55.669 18.3025 56.7912 17.4218C57.9276 16.5412 59.3977 16.1008 61.2017 16.1008C62.7216 16.1008 64.0142 16.4559 65.0795 17.1662C66.0152 17.7899 66.7317 18.567 67.229 19.4975C67.3404 19.7059 67.2292 19.9586 67.0052 20.0339L65.0401 20.6942C64.8736 20.7501 64.6911 20.69 64.5821 20.5522C63.6731 19.4028 62.5392 18.8281 61.1804 18.8281C60.3139 18.8281 59.6321 19.0199 59.1349 19.4034C58.6378 19.7869 58.3892 20.2841 58.3892 20.8949C58.3892 21.0937 58.4105 21.2784 58.4531 21.4488C58.5099 21.6193 58.5952 21.7755 58.7088 21.9176C58.8224 22.0596 58.9361 22.1946 59.0497 22.3224C59.1634 22.436 59.3267 22.5497 59.5398 22.6633C59.7528 22.777 59.9304 22.8764 60.0724 22.9616C60.2287 23.0326 60.4489 23.125 60.733 23.2386C61.0313 23.338 61.2585 23.4162 61.4148 23.473C61.5852 23.5156 61.8409 23.5937 62.1818 23.7073C62.5227 23.8068 62.7713 23.8849 62.9276 23.9417C63.581 24.1548 64.1563 24.3821 64.6535 24.6235C65.1505 24.8651 65.6335 25.1775 66.1023 25.5611C66.5853 25.9446 66.9545 26.4204 67.2102 26.9886C67.4659 27.5568 67.5937 28.196 67.5937 28.9062C67.5937 30.5255 66.9972 31.7826 65.804 32.6775C64.625 33.5724 63.1265 34.0199 61.3082 34.0199C59.7315 34.0199 58.3324 33.6434 57.1108 32.8906C56.0302 32.2168 55.2113 31.3326 54.6541 30.2378ZM70.1884 33.6363C69.9675 33.6363 69.7884 33.4572 69.7884 33.2363V16.3304C69.7884 16.1094 69.9675 15.9304 70.1884 15.9304H72.4353C72.6562 15.9304 72.8353 16.1094 72.8353 16.3304V33.2363C72.8353 33.4572 72.6562 33.6363 72.4353 33.6363H70.1884ZM75.1576 27.3082C75.1576 25.277 75.7116 23.6718 76.8196 22.4929C77.9417 21.2997 79.348 20.7031 81.0384 20.7031C82.6861 20.7031 84.0568 21.3068 85.1505 22.5142C86.2585 23.7216 86.8125 25.2982 86.8125 27.2443C86.8125 27.5667 86.8072 27.8384 86.7965 28.0592C86.7866 28.2628 86.6157 28.4161 86.4118 28.4161H78.6472C78.4263 28.4161 78.2447 28.5957 78.2666 28.8155C78.3362 29.5139 78.5925 30.1265 79.0355 30.6534C79.5753 31.2783 80.3068 31.5909 81.2301 31.5909C81.8835 31.5909 82.4588 31.4275 82.956 31.1008C83.3616 30.8304 83.6867 30.5064 83.9314 30.1288C84.0412 29.9596 84.2493 29.8728 84.4395 29.9399L86.2407 30.5757C86.4582 30.6525 86.5672 30.8977 86.4592 31.1014C86.0505 31.8721 85.4367 32.5324 84.6179 33.0823C83.6804 33.7073 82.5227 34.0199 81.1449 34.0199C79.3835 34.0199 77.9417 33.4161 76.8196 32.2088C75.7116 30.9871 75.1576 29.3537 75.1576 27.3082ZM78.2932 25.901C78.2693 26.1232 78.4516 26.3068 78.6751 26.3068H83.323C83.5439 26.3068 83.7252 26.1273 83.7057 25.9073C83.6425 25.1963 83.4068 24.5766 82.9985 24.0483C82.5298 23.4233 81.8765 23.1108 81.0384 23.1108C80.1861 23.1108 79.5114 23.4304 79.0142 24.0696C78.6084 24.5948 78.368 25.2053 78.2932 25.901ZM88.1975 27.3082C88.1975 25.277 88.7515 23.6718 89.8594 22.4929C90.9815 21.2997 92.3878 20.7031 94.0781 20.7031C95.7258 20.7031 97.0965 21.3068 98.1904 22.5142C99.2983 23.7216 99.8523 25.2982 99.8523 27.2443C99.8523 27.5668 99.8469 27.8385 99.8362 28.0593C99.8264 28.2629 99.6555 28.4161 99.4517 28.4161H91.6869C91.466 28.4161 91.2845 28.5957 91.3064 28.8155C91.376 29.5139 91.6323 30.1265 92.0753 30.6534C92.6151 31.2783 93.3465 31.5909 94.2699 31.5909C94.9233 31.5909 95.4985 31.4275 95.9957 31.1008C96.4013 30.8304 96.7264 30.5065 96.9712 30.1289C97.0809 29.9596 97.289 29.8728 97.4793 29.9399L99.2805 30.5757C99.498 30.6524 99.607 30.8977 99.4989 31.1015C99.0902 31.8721 98.4764 32.5324 97.6576 33.0823C96.7202 33.7073 95.5625 34.0199 94.1846 34.0199C92.4233 34.0199 90.9815 33.4161 89.8594 32.2088C88.7515 30.9871 88.1975 29.3537 88.1975 27.3082ZM91.333 25.901C91.3091 26.1232 91.4914 26.3068 91.7149 26.3068H96.3628C96.5837 26.3068 96.765 26.1273 96.7455 25.9073C96.6823 25.1963 96.4466 24.5766 96.0384 24.0483C95.5696 23.4233 94.9162 23.1108 94.0781 23.1108C93.2258 23.1108 92.5511 23.4304 92.054 24.0696C91.6481 24.5948 91.4078 25.2053 91.333 25.901ZM102.447 33.6363C102.226 33.6363 102.047 33.4572 102.047 33.2363V16.3304C102.047 16.1094 102.226 15.9304 102.447 15.9304H104.672C104.893 15.9304 105.072 16.1094 105.072 16.3304V24.6489C105.072 25.0152 105.524 25.1888 105.769 24.9169L109.108 21.2186C109.184 21.1346 109.292 21.0866 109.405 21.0866H112.113C112.461 21.0866 112.643 21.4995 112.409 21.7563L108.543 25.9909C108.419 26.1265 108.404 26.3289 108.505 26.4818L112.842 33.0151C113.018 33.281 112.828 33.6363 112.509 33.6363H109.917C109.779 33.6363 109.652 33.5657 109.578 33.4493L106.652 28.7976C106.511 28.5737 106.196 28.5457 106.018 28.7413L105.177 29.6653C105.11 29.739 105.072 29.835 105.072 29.9346V33.2363C105.072 33.4572 104.893 33.6363 104.672 33.6363H102.447Z" fill="#0F0F0F"/>
</g>
<defs>
<clipPath id="clip0_199_361">
<rect width="60" height="19.0909" fill="white" transform="translate(54 15.4545)"/>
</clipPath>
</defs>
</svg>
